<?xml version="1.0" encoding="UTF-8"?>
<svg version="1.1" xmlns="http://www.w3.org/2000/svg" width="1024" height="1024">
<path d="M0 0 C16.0560793 14.84809842 25.61131713 35.48659124 27.4921875 57.3046875 C27.55631836 57.98724609 27.62044922 58.66980469 27.68652344 59.37304688 C31.25331893 99.40989958 18.58710359 138.05973557 7.2076416 175.92126465 C6.57342371 178.03406185 5.94312195 180.14795224 5.31542969 182.26269531 C1.24533708 195.94804025 -3.18722228 209.50867114 -7.6953125 223.0546875 C-7.94797882 223.81395538 -8.20064514 224.57322327 -8.46096802 225.35549927 C-11.6926832 235.04879956 -15.02868889 244.69722566 -18.5078125 254.3046875 C-18.08314697 253.81355469 -17.65848145 253.32242187 -17.22094727 252.81640625 C-13.01720581 247.96215784 -8.70211022 243.21982012 -4.32885742 238.51855469 C-2.36435209 236.39381753 -0.49978768 234.29357055 1.1953125 231.9453125 C1.62328125 231.40390625 2.05125 230.8625 2.4921875 230.3046875 C3.1521875 230.3046875 3.8121875 230.3046875 4.4921875 230.3046875 C4.75644531 229.71171875 5.02070312 229.11875 5.29296875 228.5078125 C6.53589175 226.22439696 7.79620396 224.83042027 9.6796875 223.0546875 C12.19607207 220.6738459 14.50057576 218.17645407 16.76953125 215.5625 C20.36723749 211.41861523 24.09622003 207.41560842 27.8671875 203.4296875 C32.67475059 198.32631049 37.42995576 193.18872543 42.09375 187.953125 C45.93538157 183.71106278 49.86505829 179.55058216 53.79711914 175.39233398 C54.37582764 174.77688721 54.95453613 174.16144043 55.55078125 173.52734375 C56.06954834 172.97828369 56.58831543 172.42922363 57.12280273 171.86352539 C58.69696066 170.14095753 58.69696066 170.14095753 60.4921875 167.3046875 C61.92582402 166.13777405 63.35988522 164.97137534 64.796875 163.80859375 C67.30711234 161.5817703 69.39255571 159.03809708 71.56640625 156.48828125 C75.78399552 151.70606542 80.42892708 147.31636641 84.9921875 142.8671875 C87.18568184 140.6188558 89.26002796 138.31730276 91.33984375 135.96484375 C96.62461387 130.0824103 102.15127101 124.45948396 107.74243164 118.86914062 C109.45682851 117.15251115 111.16300777 115.42796386 112.86914062 113.703125 C113.96045021 112.6088888 115.05222902 111.51512031 116.14453125 110.421875 C116.65281967 109.90640106 117.16110809 109.39092712 117.68479919 108.85983276 C121.26330389 105.3046875 121.26330389 105.3046875 123.4921875 105.3046875 C123.4921875 104.6446875 123.4921875 103.9846875 123.4921875 103.3046875 C124.99609375 101.7890625 124.99609375 101.7890625 127.0546875 100.0546875 C127.78042969 99.4359375 128.50617187 98.8171875 129.25390625 98.1796875 C130.67247932 96.99135404 132.09167434 95.80376233 133.51171875 94.6171875 C134.12402344 94.1015625 134.73632812 93.5859375 135.3671875 93.0546875 C135.92148437 92.59578125 136.47578125 92.136875 137.046875 91.6640625 C138.74648593 90.16813352 138.74648593 90.16813352 140.4921875 87.3046875 C142.015625 86.05078125 142.015625 86.05078125 143.8671875 84.7421875 C147.40404548 82.17511316 150.6918606 79.41886766 153.9921875 76.5546875 C171.27872215 61.88428217 192.98116857 51.19026245 216.08984375 51.984375 C231.20100148 53.40700983 244.14470086 58.5945974 256.4921875 67.3046875 C257.11609375 67.74167969 257.74 68.17867188 258.3828125 68.62890625 C277.67570798 83.63950017 286.68991004 110.49518265 289.80859375 133.65429688 C291.55816716 147.7062504 292.27403644 161.53775885 290.609375 175.62890625 C290.47524704 176.79798271 290.47524704 176.79798271 290.33840942 177.99067688 C290.15100991 179.62283484 289.96234895 181.25484843 289.77246094 182.88671875 C289.50635761 185.18243945 289.246004 187.47871563 288.98828125 189.77539062 C288.45596931 194.51525692 287.913161 199.25387697 287.3671875 203.9921875 C287.21594421 205.30808868 287.21594421 205.30808868 287.06164551 206.65057373 C285.60426824 219.28518002 284.04649357 231.90547918 282.421875 244.51953125 C282.24065297 245.9296393 282.0594498 247.33974978 281.87826538 248.74986267 C281.15792115 254.35055859 280.43741728 259.95120868 279.70159912 265.54989624 C276.89525903 286.86383191 276.89525903 286.86383191 275.4921875 308.3046875 C274.5021875 308.7996875 274.5021875 308.7996875 273.4921875 309.3046875 C273.52054688 310.47515625 273.54890625 311.645625 273.578125 312.8515625 C273.57571499 319.05492649 272.91556342 325.19424618 272.32415771 331.36233521 C264.34216539 415.91237153 264.63042351 500.8255171 286.98242188 591.25878906 C290.57911557 604.94240401 290.85309796 616.50575749 283.94921875 629.125 C271.56480061 649.47285406 252.00907694 661.51217556 229.35546875 667.7265625 C197.21635074 674.2157705 165.08604035 665.00837108 138.19140625 647.19921875 C112.58534026 629.22679906 92.22312056 606.97495365 77.4921875 579.3046875 C76.96109375 578.31210937 76.43 577.31953125 75.8828125 576.296875 C49.51364679 525.32554952 50.64455344 464.61461099 53.7421875 408.8046875 C53.80710388 407.59263641 53.87202026 406.38058533 53.93890381 405.13180542 C55.160868 382.44800632 57.00127998 359.84629865 59.29504395 337.24737549 C59.57015561 334.53637578 59.83950082 331.82480661 60.109375 329.11328125 C60.23570312 327.85644531 60.36203125 326.59960938 60.4921875 325.3046875 C50.65523085 335.72784022 50.65523085 335.72784022 41.12109375 346.42578125 C36.88247283 351.31493392 32.50059486 356.08061224 28.1640625 360.8828125 C24.74913112 364.66943709 21.34232224 368.46052367 17.9921875 372.3046875 C11.43771245 379.81908567 4.70798279 387.17025494 -2.06518555 394.48706055 C-5.07118719 397.73763121 -8.05302435 401.00731521 -11.0078125 404.3046875 C-15.93338688 409.79825605 -20.94303128 415.21243326 -25.95507812 420.62695312 C-28.49547736 423.37186249 -31.03308474 426.11934681 -33.5703125 428.8671875 C-34.31958008 429.67833008 -34.31958008 429.67833008 -35.08398438 430.50585938 C-38.34026276 434.03314142 -41.58254663 437.57288758 -44.8203125 441.1171875 C-49.81926427 446.58516315 -54.88850925 451.98589846 -59.96240234 457.38427734 C-63.6510415 461.31252361 -67.31375193 465.26112336 -70.9453125 469.2421875 C-76.07237858 474.85754558 -81.2797724 480.39459037 -86.50415039 485.91943359 C-89.74187523 489.34752161 -92.96187748 492.78762412 -96.12890625 496.28125 C-96.6813501 496.88912354 -97.23379395 497.49699707 -97.80297852 498.12329102 C-98.83290105 499.26016888 -99.8583648 500.40110692 -100.87866211 501.54663086 C-102.04860249 502.83654377 -103.27322411 504.07650701 -104.5078125 505.3046875 C-105.1678125 505.3046875 -105.8278125 505.3046875 -106.5078125 505.3046875 C-106.74016602 505.8608374 -106.97251953 506.4169873 -107.21191406 506.98999023 C-108.84895847 509.91403282 -110.88357719 511.95770012 -113.2421875 514.33984375 C-113.71204071 514.81529633 -114.18189392 515.2907489 -114.66598511 515.78060913 C-116.18985007 517.31637513 -117.72254941 518.84282021 -119.2578125 520.3671875 C-119.77913757 520.88668976 -120.30046265 521.40619202 -120.83758545 521.94143677 C-144.08942655 545.05590218 -169.05165953 560.70057214 -202.6953125 561.4921875 C-227.08161984 561.14968318 -248.01379305 553.21663711 -265.11376953 535.75683594 C-278.12933858 522.19876156 -286.3407801 503.93669803 -288.5078125 485.3046875 C-288.64316406 484.14710938 -288.77851563 482.98953125 -288.91796875 481.796875 C-292.19427013 445.11736298 -279.94510867 407.82801443 -269.28515625 373.15625 C-268.37630971 370.31489318 -268.37630971 370.31489318 -268.5078125 367.3046875 C-267.8478125 367.3046875 -267.1878125 367.3046875 -266.5078125 367.3046875 C-266.39615753 366.7582811 -266.28450256 366.21187469 -266.16946411 365.64891052 C-264.99341 360.1056325 -263.47823952 354.77538477 -261.6875 349.40234375 C-261.42397736 348.59856796 -261.16045471 347.79479218 -260.88894653 346.96665955 C-260.05760528 344.43215288 -259.22072802 341.89952758 -258.3828125 339.3671875 C-257.53824801 336.80970011 -256.69496378 334.25181982 -255.85525513 331.69273376 C-255.33515373 330.10807328 -254.81219773 328.52434626 -254.28610229 326.94166565 C-252.97426588 323.20278052 -252.97426588 323.20278052 -252.5078125 319.3046875 C-251.8478125 319.3046875 -251.1878125 319.3046875 -250.5078125 319.3046875 C-250.3015625 318.1496875 -250.0953125 316.9946875 -249.8828125 315.8046875 C-248.26301659 308.38459301 -245.26130921 301.36160518 -242.5078125 294.3046875 C-242.8378125 293.9746875 -243.1678125 293.6446875 -243.5078125 293.3046875 C-248.66831485 298.91912293 -253.62654744 304.62116939 -258.34765625 310.609375 C-260.82598188 313.70168003 -263.37682339 316.72475462 -265.9453125 319.7421875 C-269.32145522 323.70902528 -272.66205965 327.69760065 -275.9453125 331.7421875 C-279.41853916 336.01213999 -282.9758707 340.19960518 -286.5703125 344.3671875 C-290.63917436 349.0864575 -294.59518783 353.86971581 -298.4609375 358.7578125 C-302.69915344 364.03131783 -307.12229669 369.15361285 -311.5078125 374.3046875 C-313.38445571 376.51163023 -315.25940688 378.71999587 -317.1328125 380.9296875 C-317.81863403 381.73817139 -317.81863403 381.73817139 -318.51831055 382.56298828 C-321.43161981 386.00641662 -324.29340784 389.48729737 -327.1328125 392.9921875 C-330.71003429 397.39051536 -334.45378791 401.59767604 -338.26953125 405.7890625 C-341.31660307 409.21369471 -344.18526892 412.77080558 -347.0703125 416.33203125 C-351.27709374 421.46241671 -355.62393587 426.47218369 -359.95507812 431.49755859 C-361.49427232 433.28892894 -363.02568369 435.08664637 -364.5546875 436.88671875 C-369.34087202 442.51415832 -374.16865748 448.07764609 -379.1953125 453.4921875 C-382.67423198 457.2460216 -385.99016697 461.06472038 -389.1953125 465.0546875 C-392.45935969 469.11001885 -395.89205353 472.79930795 -399.62109375 476.42578125 C-402.06811882 478.86267371 -404.30071559 481.45200189 -406.5546875 484.06640625 C-410.24953279 488.30069895 -414.07301295 492.41843567 -417.88671875 496.54541016 C-419.68307587 498.49489049 -421.47013157 500.45271845 -423.2578125 502.41015625 C-424.52833095 503.79195626 -425.79916037 505.1734704 -427.0703125 506.5546875 C-427.67818604 507.22314697 -428.28605957 507.89160645 -428.91235352 508.58032227 C-429.76591431 509.50349243 -429.76591431 509.50349243 -430.63671875 510.4453125 C-431.14275635 510.99735352 -431.64879395 511.54939453 -432.17016602 512.11816406 C-433.5078125 513.3046875 -433.5078125 513.3046875 -435.5078125 513.3046875 C-435.8378125 514.2946875 -436.1678125 515.2846875 -436.5078125 516.3046875 C-437.1678125 516.3046875 -437.8278125 516.3046875 -438.5078125 516.3046875 C-438.5078125 516.9646875 -438.5078125 517.6246875 -438.5078125 518.3046875 C-439.1678125 518.3046875 -439.8278125 518.3046875 -440.5078125 518.3046875 C-440.5078125 518.9646875 -440.5078125 519.6246875 -440.5078125 520.3046875 C-443.49410893 523.08523516 -446.73182808 525.55630496 -449.94335938 528.07128906 C-451.39041918 529.21213584 -452.81729321 530.37846168 -454.2421875 531.546875 C-473.70315273 546.99470333 -496.01298272 555.28667588 -521.0546875 552.8671875 C-542.0489002 549.44731575 -559.30564738 537.80197429 -572.5078125 521.3046875 C-585.24674453 503.22139339 -592.00589674 483.18190435 -594.5078125 461.3046875 C-594.61867188 460.4178125 -594.72953125 459.5309375 -594.84375 458.6171875 C-599.80663682 411.40269672 -587.7626475 362.27095154 -573.46875 317.56640625 C-572.36651167 314.39178966 -572.36651167 314.39178966 -572.5078125 311.3046875 C-571.8478125 311.3046875 -571.1878125 311.3046875 -570.5078125 311.3046875 C-570.25257813 310.05300781 -569.99734375 308.80132812 -569.734375 307.51171875 C-568.47577339 301.87865571 -566.72282403 296.4589986 -564.8828125 290.9921875 C-564.50092773 289.85410645 -564.11904297 288.71602539 -563.72558594 287.54345703 C-553.75136575 258.14515111 -542.8999934 229.04408623 -531.29241943 200.25354004 C-530.50171426 198.28954032 -529.71445535 196.32419249 -528.92822266 194.35839844 C-459.8197954 21.63918954 -459.8197954 21.63918954 -395.5078125 -8.6953125 C-387.86618477 -11.915907 -380.76239637 -13.99577149 -372.5078125 -14.6953125 C-372.1778125 -15.3553125 -371.8478125 -16.0153125 -371.5078125 -16.6953125 C-361.6078125 -16.6953125 -351.7078125 -16.6953125 -341.5078125 -16.6953125 C-341.5078125 -16.0353125 -341.5078125 -15.3753125 -341.5078125 -14.6953125 C-340.4353125 -14.6334375 -339.3628125 -14.5715625 -338.2578125 -14.5078125 C-322.7887535 -12.51620526 -309.4221696 -2.13008219 -299.5078125 9.3046875 C-287.71621294 25.01051098 -286.01873086 45.3999828 -288.5078125 64.3046875 C-291.80725352 86.06359883 -297.3303016 107.2133639 -303.5078125 128.3046875 C-303.74562439 129.11697815 -303.98343628 129.9292688 -304.22845459 130.76617432 C-313.91414539 163.77141242 -323.67708337 196.98778995 -336.05761719 229.10205078 C-336.39954102 230.00938965 -336.74146484 230.91672852 -337.09375 231.8515625 C-337.3932959 232.62338867 -337.6928418 233.39521484 -338.00146484 234.19042969 C-338.57798248 236.59768271 -338.29997167 237.98671802 -337.5078125 240.3046875 C-335.71108902 238.22553591 -333.92038723 236.14168099 -332.1328125 234.0546875 C-331.62492187 233.46816406 -331.11703125 232.88164062 -330.59375 232.27734375 C-327.70124954 228.92631723 -327.70124954 228.92631723 -325.46875 225.1328125 C-324.07098875 222.47365695 -321.85686556 221.14413916 -319.5078125 219.3046875 C-318.10908478 217.69655333 -316.75661469 216.04737239 -315.4453125 214.3671875 C-311.95734595 210.00868021 -308.32732388 205.87440105 -304.5078125 201.8046875 C-300.04854734 197.0443099 -295.86979525 192.13996076 -291.78515625 187.05078125 C-288.84637914 183.50711006 -285.72418902 180.14866248 -282.58911133 176.78051758 C-279.63834903 173.59126831 -276.84781027 170.32094845 -274.1328125 166.9296875 C-270.08115033 161.89052344 -265.73426634 157.20002979 -261.30517578 152.49658203 C-258.06232798 149.03407272 -254.97351771 145.51181902 -252.0078125 141.8046875 C-247.44905199 136.11044236 -242.49494864 130.83513504 -237.5078125 125.51953125 C-234.69566508 122.51950329 -231.97814074 119.44994531 -229.29296875 116.3359375 C-227.01352393 113.7422585 -224.66509438 111.21406665 -222.3203125 108.6796875 C-218.1872546 104.20854863 -214.19536553 99.63610018 -210.2578125 94.9921875 C-206.68027829 90.77544296 -203.06336058 86.71193674 -199.078125 82.87109375 C-197.31251811 81.10987891 -195.69556653 79.25845844 -194.0703125 77.3671875 C-191.03809358 73.84655748 -187.81627314 70.58769171 -184.5 67.3359375 C-181.82717125 64.61070034 -179.38476088 61.71402042 -176.953125 58.7734375 C-176.47617187 58.28875 -175.99921875 57.8040625 -175.5078125 57.3046875 C-174.8478125 57.3046875 -174.1878125 57.3046875 -173.5078125 57.3046875 C-173.1778125 56.3146875 -172.8478125 55.3246875 -172.5078125 54.3046875 C-171.8478125 54.3046875 -171.1878125 54.3046875 -170.5078125 54.3046875 C-170.5078125 53.6446875 -170.5078125 52.9846875 -170.5078125 52.3046875 C-169.8478125 52.3046875 -169.1878125 52.3046875 -168.5078125 52.3046875 C-168.5078125 51.6446875 -168.5078125 50.9846875 -168.5078125 50.3046875 C-167.00390625 48.82421875 -167.00390625 48.82421875 -164.9453125 47.1171875 C-162.1824257 44.77188992 -159.54101493 42.39639345 -157.0078125 39.8046875 C-154.08604723 36.84370391 -151.05822393 34.07263154 -147.90234375 31.36328125 C-146.09427632 29.80887418 -144.30279942 28.23513995 -142.51953125 26.65234375 C-103.88805351 -7.41847342 -46.53035376 -40.05656541 0 0 Z M-340.5078125 241.3046875 C-340.5078125 242.2946875 -340.5078125 243.2846875 -340.5078125 244.3046875 C-339.8478125 243.3146875 -339.1878125 242.3246875 -338.5078125 241.3046875 C-339.1678125 241.3046875 -339.8278125 241.3046875 -340.5078125 241.3046875 Z M-342.5078125 244.3046875 C-341.5078125 246.3046875 -341.5078125 246.3046875 -341.5078125 246.3046875 Z M-241.5078125 289.3046875 C-240.5078125 291.3046875 -240.5078125 291.3046875 -240.5078125 291.3046875 Z " fill="#FECE08" transform="translate(676.5078125,168.6953125)"/>
<path d="M0 0 C0.66 0.33 1.32 0.66 2 1 C1.9278125 1.73863281 1.855625 2.47726562 1.78125 3.23828125 C1.21774845 9.39766623 0.91524753 15.44039634 1.0625 21.625 C1.00186093 23.92928456 0.57805624 25.78115334 0 28 C-0.17002546 30.69540361 -0.08877822 33.29226438 0 36 C0.33 36.33 0.66 36.66 1 37 C1.08700342 38.63472882 1.10701063 40.27314055 1.09765625 41.91015625 C1.09282227 43.39418945 1.09282227 43.39418945 1.08789062 44.90820312 C1.07951172 45.94912109 1.07113281 46.99003906 1.0625 48.0625 C1.05798828 49.10728516 1.05347656 50.15207031 1.04882812 51.22851562 C1.03699913 53.8190666 1.02051689 56.40950559 1 59 C0.67 59 0.34 59 0 59 C-2.81451257 40.05229932 -4.1786935 18.85679337 0 0 Z " fill="#FDF20A" transform="translate(83,576)"/>
<path d="M0 0 C6.75 -0.125 6.75 -0.125 9 1 C9 1.66 9 2.32 9 3 C9.66 2.67 10.32 2.34 11 2 C12.59447464 1.91599471 14.19240545 1.89272533 15.7890625 1.90234375 C16.73007813 1.90556641 17.67109375 1.90878906 18.640625 1.91210938 C19.62546875 1.92048828 20.6103125 1.92886719 21.625 1.9375 C22.61757812 1.94201172 23.61015625 1.94652344 24.6328125 1.95117188 C27.0886016 1.96297855 29.54427104 1.979446 32 2 C32.495 2.99 32.495 2.99 33 4 C21.39079266 5.23502206 10.27226065 5.31537078 -1 2 C-0.67 1.34 -0.34 0.68 0 0 Z " fill="#FBE806" transform="translate(145,717)"/>
<path d="M0 0 C-1.7413397 2.17522833 -2.62452676 2.93691564 -5.41796875 3.40625 C-6.33191406 3.4371875 -7.24585938 3.468125 -8.1875 3.5 C-11.92894387 3.72735326 -14.92051019 4.16424431 -18.375 5.625 C-21.98950496 6.99601912 -23.4190263 7.23095971 -27 6 C-23.41319941 3.6087996 -19.88427804 2.82906416 -15.75 1.875 C-15.01136719 1.69324219 -14.27273438 1.51148438 -13.51171875 1.32421875 C-8.89030269 0.24018288 -4.7446988 -0.1882817 0 0 Z " fill="#FDE908" transform="translate(889,221)"/>
<path d="M0 0 C0 3 0 3 -2.3125 5.625 C-5 8 -5 8 -8 9 C-8 9.66 -8 10.32 -8 11 C-8.66 11 -9.32 11 -10 11 C-10.268125 11.78375 -10.53625 12.5675 -10.8125 13.375 C-12 16 -12 16 -15 18 C-15 14 -15 14 -13.83837891 12.3684082 C-13.04052979 11.59243286 -13.04052979 11.59243286 -12.2265625 10.80078125 C-11.6490625 10.23166016 -11.0715625 9.66253906 -10.4765625 9.07617188 C-9.56003906 8.2031543 -9.56003906 8.2031543 -8.625 7.3125 C-7.72007812 6.42208008 -7.72007812 6.42208008 -6.796875 5.51367188 C-2.33853557 1.16926778 -2.33853557 1.16926778 0 0 Z " fill="#FDEA07" transform="translate(247,181)"/>
<path d="M0 0 C0.98743109 7.00316511 1.45650882 14.02142295 0 21 C-0.66 21.33 -1.32 21.66 -2 22 C-1.98839844 21.40832031 -1.97679687 20.81664062 -1.96484375 20.20703125 C-1.90496299 14.96318756 -2.30449828 10.43425601 -3.75 5.375 C-4 3 -4 3 -2.625 1.1875 C-1 0 -1 0 0 0 Z " fill="#FEDF07" transform="translate(388,205)"/>
<path d="M0 0 C0.66 0.33 1.32 0.66 2 1 C2.11624638 9.73139464 1.89115181 18.31126982 1 27 C0.67 27 0.34 27 0 27 C-0.68501795 20.18143672 -1.23511764 13.68245355 -0.2578125 6.87890625 C0.05822454 4.5756666 0.07487674 2.32117901 0 0 Z " fill="#FEF707" transform="translate(943,552)"/>
<path d="M0 0 C0.66 0.66 1.32 1.32 2 2 C-1.80351413 7.82665994 -5.76017897 13.48221873 -10 19 C-10.33 18.34 -10.66 17.68 -11 17 C-9.63158328 14.60452864 -8.22333663 12.34662395 -6.6875 10.0625 C-6.27048828 9.42892578 -5.85347656 8.79535156 -5.42382812 8.14257812 C-4.29027647 6.42326772 -3.14561288 4.71129739 -2 3 C-1.34 2.01 -0.68 1.02 0 0 Z " fill="#FDED08" transform="translate(223,206)"/>
<path d="M0 0 C0.99 0.99 1.98 1.98 3 3 C1.02 7.95 -0.96 12.9 -3 18 C-4.16915233 13.3233907 -3.45376457 11.30322949 -2.0625 6.75 C-1.68222656 5.48671875 -1.30195312 4.2234375 -0.91015625 2.921875 C-0.60980469 1.95765625 -0.30945313 0.9934375 0 0 Z " fill="#FEF409" transform="translate(99,500)"/>
<path d="M0 0 C0 0.99 0 1.98 0 3 C-0.66 2.67 -1.32 2.34 -2 2 C-1.34 1.34 -0.68 0.68 0 0 Z M-4 4 C-3.67 4.99 -3.34 5.98 -3 7 C-5.97 9.97 -8.94 12.94 -12 16 C-12.66 15.67 -13.32 15.34 -14 15 C-10.7 11.37 -7.4 7.74 -4 4 Z " fill="#FEC203" transform="translate(724,351)"/>
<path d="M0 0 C0 3 0 3 -2.375 5.6875 C-5 8 -5 8 -7 8 C-7 8.66 -7 9.32 -7 10 C-7.66 10 -8.32 10 -9 10 C-9.66 11.32 -10.32 12.64 -11 14 C-11.99 14 -12.98 14 -14 14 C-13.04882866 12.8274869 -12.08882991 11.66212985 -11.125 10.5 C-10.59132813 9.8503125 -10.05765625 9.200625 -9.5078125 8.53125 C-9.01023437 8.0259375 -8.51265625 7.520625 -8 7 C-7.34 7 -6.68 7 -6 7 C-6 6.34 -6 5.68 -6 5 C-4.04072937 3.2856382 -2.04119788 1.61594832 0 0 Z " fill="#FEDE06" transform="translate(806,267)"/>
<path d="M0 0 C0.66 0.33 1.32 0.66 2 1 C1.57742724 2.4835001 1.13643678 3.96176424 0.6875 5.4375 C0.44386719 6.26121094 0.20023438 7.08492188 -0.05078125 7.93359375 C-0.36402344 8.61550781 -0.67726562 9.29742187 -1 10 C-1.99 10.33 -2.98 10.66 -4 11 C-3.52269162 9.5410574 -3.04308958 8.08286504 -2.5625 6.625 C-2.29566406 5.81289063 -2.02882812 5.00078125 -1.75390625 4.1640625 C-1 2 -1 2 0 0 Z M-5 11 C-4.34 11.33 -3.68 11.66 -3 12 C-3.33 13.32 -3.66 14.64 -4 16 C-4.66 16 -5.32 16 -6 16 C-5.67 14.35 -5.34 12.7 -5 11 Z " fill="#FDEF09" transform="translate(171,307)"/>
<path d="M0 0 C0.66 0.33 1.32 0.66 2 1 C1.66666667 3.33333333 1.33333333 5.66666667 1 8 C0.7834375 9.918125 0.7834375 9.918125 0.5625 11.875 C0.376875 12.90625 0.19125 13.9375 0 15 C-0.99 15.495 -0.99 15.495 -2 16 C-2.2396943 10.36718401 -1.38529821 5.45461169 0 0 Z " fill="#FDF30A" transform="translate(89,538)"/>
<path d="M0 0 C0.33 0 0.66 0 1 0 C2.07875823 7.19172157 1.7938642 13.78194245 1 21 C-1.31983051 17.34145308 -1.23682033 14.20146708 -1.1875 9.9375 C-1.18105469 8.70902344 -1.17460938 7.48054688 -1.16796875 6.21484375 C-1 3 -1 3 0 0 Z " fill="#FEF50A" transform="translate(966,311)"/>
<path d="M0 0 C0.99 0.33 1.98 0.66 3 1 C-5.44827586 8 -5.44827586 8 -10 8 C-6.97731777 4.74480375 -3.85903564 2.21689281 0 0 Z " fill="#FDEA07" transform="translate(260,171)"/>
<path d="M0 0 C0.66 0 1.32 0 2 0 C2.36923077 7.38461538 2.36923077 7.38461538 0.5 10.5 C0.005 10.995 -0.49 11.49 -1 12 C-1.08159574 7.83861737 -0.98248524 4.0527516 0 0 Z " fill="#FEF708" transform="translate(953,435)"/>
<path d="M0 0 C0.99 0.495 0.99 0.495 2 1 C2 1.66 2 2.32 2 3 C1.34 3 0.68 3 0 3 C0 2.01 0 1.02 0 0 Z M-1 3 C-0.34 3.33 0.32 3.66 1 4 C-0.09068668 7.77545388 -0.9083091 10.47043472 -4 13 C-3.49287967 9.28111761 -2.88391785 6.26545761 -1 3 Z " fill="#FDEE09" transform="translate(148,362)"/>
<path d="M0 0 C1.10176129 3.35216734 0.89303058 5.75121078 0.1875 9.1875 C0.01605469 10.06792969 -0.15539062 10.94835937 -0.33203125 11.85546875 C-0.55246094 12.56316406 -0.77289062 13.27085937 -1 14 C-1.99 14.495 -1.99 14.495 -3 15 C-2.22225866 9.94468132 -1.14051606 4.98283716 0 0 Z " fill="#FEF506" transform="translate(960,393)"/>
<path d="M0 0 C0.66 0.33 1.32 0.66 2 1 C0.88059018 5.85077588 -0.1334716 8.777893 -4 12 C-3.33501617 7.61110675 -1.81242323 4.0188515 0 0 Z " fill="#FEF008" transform="translate(162,328)"/>
<path d="M0 0 C0.66 0.33 1.32 0.66 2 1 C0.94124926 4.40312738 -0.00902154 7.01353231 -2 10 C-2.66 10 -3.32 10 -4 10 C-2.8905928 6.51329166 -1.73662334 3.22515763 0 0 Z " fill="#FEF009" transform="translate(195,255)"/>
<path d="M0 0 C0 3 0 3 -1.53125 4.82421875 C-2.1809375 5.43910156 -2.830625 6.05398438 -3.5 6.6875 C-4.1496875 7.31011719 -4.799375 7.93273437 -5.46875 8.57421875 C-5.9740625 9.04472656 -6.479375 9.51523437 -7 10 C-7.33 9.34 -7.66 8.68 -8 8 C-7.67 7.34 -7.34 6.68 -7 6 C-6.34 6 -5.68 6 -5 6 C-4.67 5.01 -4.34 4.02 -4 3 C-1.9375 1.3125 -1.9375 1.3125 0 0 Z " fill="#FEC203" transform="translate(643,595)"/>
<path d="M0 0 C6.15234375 0.5859375 6.15234375 0.5859375 8 1 C8.33 1.66 8.66 2.32 9 3 C5.7 2.67 2.4 2.34 -1 2 C-0.67 1.34 -0.34 0.68 0 0 Z " fill="#FCE807" transform="translate(857,833)"/>
<path d="M0 0 C0.99 0.33 1.98 0.66 3 1 C2.38003922 2.29409289 1.75383647 3.58519673 1.125 4.875 C0.77695313 5.59429687 0.42890625 6.31359375 0.0703125 7.0546875 C-1 9 -1 9 -3 11 C-2.44894091 7.0507432 -1.61064629 3.65079826 0 0 Z " fill="#FDEF08" transform="translate(123,428)"/>
<path d="M0 0 C0.66 0.33 1.32 0.66 2 1 C0.66511872 4.59391114 -0.96022723 7.75490696 -3 11 C-3.33 10.34 -3.66 9.68 -4 9 C-3.22265625 6.8359375 -3.22265625 6.8359375 -2.0625 4.375 C-1.68222656 3.55773437 -1.30195313 2.74046875 -0.91015625 1.8984375 C-0.60980469 1.27195312 -0.30945313 0.64546875 0 0 Z " fill="#FEED08" transform="translate(190,265)"/>
<path d="M0 0 C3.3 0.33 6.6 0.66 10 1 C8 3 8 3 4.375 3.125 C3.26125 3.08375 2.1475 3.0425 1 3 C0.67 2.01 0.34 1.02 0 0 Z " fill="#FCEC07" transform="translate(893,221)"/>
<path d="M0 0 C0.66 0.99 1.32 1.98 2 3 C1.01 3.99 0.02 4.98 -1 6 C-0.67 4.02 -0.34 2.04 0 0 Z M-2 6 C-1.34 6.99 -0.68 7.98 0 9 C-0.99 9.99 -1.98 10.98 -3 12 C-2.67 10.02 -2.34 8.04 -2 6 Z " fill="#FDEE09" transform="translate(113,456)"/>
<path d="M0 0 C1.46015291 0.28241641 2.91809793 0.57626614 4.375 0.875 C5.18710937 1.03742188 5.99921875 1.19984375 6.8359375 1.3671875 C9 2 9 2 11 4 C9 4 7 4 5 4 C5 3.34 5 2.68 5 2 C4.01 2.33 3.02 2.66 2 3 C2 2.34 2 1.68 2 1 C1.34 0.67 0.68 0.34 0 0 Z " fill="#FCE008" transform="translate(646,153)"/>
<path d="M0 0 C0.66 1.32 1.32 2.64 2 4 C0.02 6.97 0.02 6.97 -2 10 C-3.39195915 5.82412255 -1.82323219 3.86525224 0 0 Z " fill="#FDEF08" transform="translate(143,375)"/>
<path d="M0 0 C0.66 0.66 1.32 1.32 2 2 C0.68 4.31 -0.64 6.62 -2 9 C-3 6 -3 6 -1.5625 2.8125 C-1.046875 1.884375 -0.53125 0.95625 0 0 Z " fill="#FDED09" transform="translate(184,278)"/>
<path d="M0 0 C2.5654594 2.5654594 2.54046087 4.47686668 3 8 C2.01 8.495 2.01 8.495 1 9 C0.63877119 7.68942607 0.28619689 6.37646376 -0.0625 5.0625 C-0.35833984 3.96615234 -0.35833984 3.96615234 -0.66015625 2.84765625 C-0.77230469 2.23792969 -0.88445312 1.62820312 -1 1 C-0.67 0.67 -0.34 0.34 0 0 Z " fill="#FEE307" transform="translate(383,191)"/>
<path d="M0 0 C0.33 0 0.66 0 1 0 C1 1.65 1 3.3 1 5 C0.67 5 0.34 5 0 5 C0 3.35 0 1.7 0 0 Z " fill="#FFCF08" transform="translate(728,646)"/>
<path d="" fill="#FECF09" transform="translate(0,0)"/>
<path d="" fill="#F8ED0B" transform="translate(0,0)"/>
<path d="M0 0 C0.99 0.495 0.99 0.495 2 1 C1.01 1.495 1.01 1.495 0 2 C0 1.34 0 0.68 0 0 Z " fill="#FFC706" transform="translate(712,360)"/>
<path d="" fill="#FEDC0A" transform="translate(0,0)"/>
<path d="M0 0 C3 1 3 1 3 1 Z " fill="#FAD30A" transform="translate(544,184)"/>
<path d="M0 0 C3 1 3 1 3 1 Z " fill="#F4D409" transform="translate(600,152)"/>
<path d="" fill="#FAD309" transform="translate(0,0)"/>
<path d="M0 0 C2 1 2 1 2 1 Z " fill="#F9D109" transform="translate(739,718)"/>
<path d="" fill="#FDF00C" transform="translate(0,0)"/>
<path d="" fill="#FFC707" transform="translate(0,0)"/>
<path d="" fill="#FFC507" transform="translate(0,0)"/>
<path d="" fill="#FECD09" transform="translate(0,0)"/>
<path d="" fill="#060400" transform="translate(0,0)"/>
<path d="" fill="#000000" transform="translate(0,0)"/>
<path d="" fill="#010100" transform="translate(0,0)"/>
<path d="" fill="#060700" transform="translate(0,0)"/>
<path d="" fill="#030200" transform="translate(0,0)"/>
<path d="" fill="#050600" transform="translate(0,0)"/>
<path d="" fill="#050300" transform="translate(0,0)"/>
<path d="" fill="#090900" transform="translate(0,0)"/>
<path d="" fill="#F1E108" transform="translate(0,0)"/>
<path d="" fill="#F1DD08" transform="translate(0,0)"/>
<path d="" fill="#F9D408" transform="translate(0,0)"/>
<path d="" fill="#FAD10A" transform="translate(0,0)"/>
<path d="" fill="#F3C207" transform="translate(0,0)"/>
<path d="" fill="#EFE009" transform="translate(0,0)"/>
<path d="" fill="#FAD109" transform="translate(0,0)"/>
<path d="" fill="#FBD409" transform="translate(0,0)"/>
<path d="" fill="#F9C507" transform="translate(0,0)"/>
<path d="" fill="#F6D906" transform="translate(0,0)"/>
<path d="" fill="#FBD109" transform="translate(0,0)"/>
<path d="" fill="#FCF50C" transform="translate(0,0)"/>
<path d="" fill="#FED10A" transform="translate(0,0)"/>
<path d="" fill="#F6EA0C" transform="translate(0,0)"/>
<path d="" fill="#F8C203" transform="translate(0,0)"/>
<path d="" fill="#F8C106" transform="translate(0,0)"/>
<path d="" fill="#F6EB0C" transform="translate(0,0)"/>
<path d="" fill="#FDD208" transform="translate(0,0)"/>
<path d="" fill="#FDCE07" transform="translate(0,0)"/>
<path d="" fill="#FFCE08" transform="translate(0,0)"/>
<path d="" fill="#FFD007" transform="translate(0,0)"/>
<path d="" fill="#F8EB0D" transform="translate(0,0)"/>
<path d="" fill="#FDC406" transform="translate(0,0)"/>
<path d="" fill="#F8EF0D" transform="translate(0,0)"/>
<path d="" fill="#FFCD0A" transform="translate(0,0)"/>
<path d="" fill="#FDCD06" transform="translate(0,0)"/>
<path d="" fill="#FFCA0A" transform="translate(0,0)"/>
<path d="" fill="#FFCB09" transform="translate(0,0)"/>
<path d="" fill="#FECD08" transform="translate(0,0)"/>
<path d="" fill="#FFC907" transform="translate(0,0)"/>
<path d="" fill="#F8EC0B" transform="translate(0,0)"/>
<path d="" fill="#FFC50A" transform="translate(0,0)"/>
<path d="" fill="#FEC205" transform="translate(0,0)"/>
<path d="" fill="#FFC507" transform="translate(0,0)"/>
<path d="" fill="#FFC506" transform="translate(0,0)"/>
<path d="" fill="#FEF70B" transform="translate(0,0)"/>
<path d="" fill="#FFC507" transform="translate(0,0)"/>
<path d="" fill="#FFC108" transform="translate(0,0)"/>
<path d="" fill="#F8EB0E" transform="translate(0,0)"/>
<path d="" fill="#FDBD05" transform="translate(0,0)"/>
<path d="" fill="#FFC305" transform="translate(0,0)"/>
<path d="" fill="#FFBE08" transform="translate(0,0)"/>
<path d="" fill="#F9ED0C" transform="translate(0,0)"/>
<path d="" fill="#FDBD06" transform="translate(0,0)"/>
<path d="" fill="#FEBA04" transform="translate(0,0)"/>
<path d="" fill="#FFC104" transform="translate(0,0)"/>
<path d="" fill="#FBB905" transform="translate(0,0)"/>
<path d="" fill="#FEBB05" transform="translate(0,0)"/>
<path d="" fill="#FFC104" transform="translate(0,0)"/>
<path d="" fill="#FEBC09" transform="translate(0,0)"/>
<path d="" fill="#FDF00D" transform="translate(0,0)"/>
<path d="" fill="#FEB509" transform="translate(0,0)"/>
<path d="" fill="#FDEE0E" transform="translate(0,0)"/>
<path d="" fill="#FCB502" transform="translate(0,0)"/>
<path d="" fill="#FFF00C" transform="translate(0,0)"/>
<path d="" fill="#FDB404" transform="translate(0,0)"/>
<path d="" fill="#FFB803" transform="translate(0,0)"/>
<path d="" fill="#FDB606" transform="translate(0,0)"/>
<path d="" fill="#FFC507" transform="translate(0,0)"/>
<path d="" fill="#FFB802" transform="translate(0,0)"/>
<path d="" fill="#FDC009" transform="translate(0,0)"/>
<path d="" fill="#F8EA0D" transform="translate(0,0)"/>
<path d="" fill="#FFBF07" transform="translate(0,0)"/>
<path d="" fill="#FFC005" transform="translate(0,0)"/>
<path d="" fill="#FFC207" transform="translate(0,0)"/>
<path d="" fill="#FFC407" transform="translate(0,0)"/>
<path d="" fill="#FFC307" transform="translate(0,0)"/>
<path d="" fill="#F7E90C" transform="translate(0,0)"/>
<path d="" fill="#FFC307" transform="translate(0,0)"/>
<path d="" fill="#FFC507" transform="translate(0,0)"/>
<path d="" fill="#FDF10D" transform="translate(0,0)"/>
<path d="" fill="#FFC706" transform="translate(0,0)"/>
<path d="" fill="#F7E80C" transform="translate(0,0)"/>
<path d="" fill="#FFC90C" transform="translate(0,0)"/>
<path d="" fill="#FCEF0D" transform="translate(0,0)"/>
<path d="" fill="#FFC506" transform="translate(0,0)"/>
<path d="" fill="#FFCD06" transform="translate(0,0)"/>
<path d="" fill="#FFC606" transform="translate(0,0)"/>
<path d="" fill="#FDC309" transform="translate(0,0)"/>
<path d="" fill="#FFCC06" transform="translate(0,0)"/>
<path d="" fill="#FFD607" transform="translate(0,0)"/>
<path d="" fill="#FFC908" transform="translate(0,0)"/>
<path d="" fill="#FFD209" transform="translate(0,0)"/>
<path d="" fill="#FFC707" transform="translate(0,0)"/>
<path d="" fill="#FED20A" transform="translate(0,0)"/>
<path d="" fill="#FFC808" transform="translate(0,0)"/>
<path d="" fill="#FFCF09" transform="translate(0,0)"/>
<path d="" fill="#FDD40B" transform="translate(0,0)"/>
<path d="" fill="#FFD00B" transform="translate(0,0)"/>
<path d="" fill="#FECE0A" transform="translate(0,0)"/>
<path d="" fill="#F9E60E" transform="translate(0,0)"/>
<path d="" fill="#FFC909" transform="translate(0,0)"/>
<path d="" fill="#FFCA0A" transform="translate(0,0)"/>
<path d="" fill="#FAF10D" transform="translate(0,0)"/>
<path d="" fill="#FFCC06" transform="translate(0,0)"/>
<path d="" fill="#FFCE07" transform="translate(0,0)"/>
<path d="" fill="#FFD60A" transform="translate(0,0)"/>
<path d="" fill="#FAE60D" transform="translate(0,0)"/>
<path d="" fill="#FFE00B" transform="translate(0,0)"/>
<path d="" fill="#FFCA0B" transform="translate(0,0)"/>
<path d="" fill="#FBCD0C" transform="translate(0,0)"/>
<path d="" fill="#FED50C" transform="translate(0,0)"/>
<path d="" fill="#FFCF08" transform="translate(0,0)"/>
<path d="" fill="#FADF0E" transform="translate(0,0)"/>
<path d="" fill="#FED009" transform="translate(0,0)"/>
<path d="" fill="#F7E50D" transform="translate(0,0)"/>
<path d="" fill="#F0E50D" transform="translate(0,0)"/>
<path d="" fill="#F6DF09" transform="translate(0,0)"/>
<path d="" fill="#F3E50B" transform="translate(0,0)"/>
<path d="" fill="#F7E30D" transform="translate(0,0)"/>
<path d="" fill="#FBD30B" transform="translate(0,0)"/>
<path d="" fill="#F8D707" transform="translate(0,0)"/>
<path d="" fill="#F9D70B" transform="translate(0,0)"/>
<path d="" fill="#F4D90B" transform="translate(0,0)"/>
<path d="" fill="#F2DA08" transform="translate(0,0)"/>
<path d="" fill="#F3D90B" transform="translate(0,0)"/>
<path d="" fill="#292700" transform="translate(0,0)"/>
<path d="" fill="#0B0900" transform="translate(0,0)"/>
<path d="" fill="#000000" transform="translate(0,0)"/>
<path d="" fill="#2E2400" transform="translate(0,0)"/>
</svg>
