<svg xmlns="http://www.w3.org/2000/svg" width="800" height="500" viewBox="0 0 800 500">
  <defs>
    <linearGradient id="bg5" x1="0%" y1="0%" x2="100%" y2="100%">
      <stop offset="0%" stop-color="#09090b"/>
      <stop offset="100%" stop-color="#0f0c1a"/>
    </linearGradient>
  </defs>
  <rect width="800" height="500" fill="url(#bg5)"/>
  <!-- Browser window mockup -->
  <rect x="150" y="80" width="500" height="320" rx="12" fill="none" stroke="#52525b" stroke-width="1" opacity="0.5"/>
  <!-- Title bar -->
  <rect x="150" y="80" width="500" height="32" rx="12" fill="#111118" opacity="0.8"/>
  <circle cx="172" cy="96" r="5" fill="#ff5f57" opacity="0.6"/>
  <circle cx="190" cy="96" r="5" fill="#febc2e" opacity="0.6"/>
  <circle cx="208" cy="96" r="5" fill="#28c840" opacity="0.6"/>
  <text x="400" y="100" font-family="monospace" font-size="9" fill="#52525b" text-anchor="middle">dataportfolio.co.uk</text>
  <!-- Content blocks -->
  <rect x="175" y="130" width="200" height="12" rx="2" fill="#a855f7" opacity="0.2"/>
  <rect x="175" y="155" width="140" height="8" rx="2" fill="#52525b" opacity="0.2"/>
  <rect x="175" y="175" width="160" height="8" rx="2" fill="#52525b" opacity="0.15"/>
  <!-- Card grid -->
  <rect x="175" y="200" width="145" height="90" rx="8" fill="none" stroke="#a855f7" stroke-width="1" opacity="0.3"/>
  <rect x="185" y="210" width="80" height="6" rx="2" fill="#a855f7" opacity="0.3"/>
  <rect x="185" y="224" width="120" height="4" rx="2" fill="#52525b" opacity="0.2"/>
  <rect x="185" y="234" width="100" height="4" rx="2" fill="#52525b" opacity="0.15"/>
  <rect x="340" y="200" width="145" height="90" rx="8" fill="none" stroke="#00f0ff" stroke-width="1" opacity="0.3"/>
  <rect x="350" y="210" width="80" height="6" rx="2" fill="#00f0ff" opacity="0.3"/>
  <rect x="350" y="224" width="120" height="4" rx="2" fill="#52525b" opacity="0.2"/>
  <rect x="350" y="234" width="100" height="4" rx="2" fill="#52525b" opacity="0.15"/>
  <rect x="505" y="200" width="120" height="90" rx="8" fill="none" stroke="#22d3ee" stroke-width="1" opacity="0.3"/>
  <rect x="515" y="210" width="70" height="6" rx="2" fill="#22d3ee" opacity="0.3"/>
  <rect x="515" y="224" width="95" height="4" rx="2" fill="#52525b" opacity="0.2"/>
  <!-- CTA -->
  <rect x="330" y="320" width="140" height="36" rx="18" fill="none" stroke="#a855f7" stroke-width="1.5" opacity="0.4"/>
  <text x="400" y="342" font-family="monospace" font-size="10" fill="#a855f7" text-anchor="middle" opacity="0.5">Get Started</text>
  <!-- Title -->
  <text x="400" y="440" font-family="monospace" font-size="14" fill="#a855f7" text-anchor="middle" opacity="0.6">Full-Stack SaaS Platform</text>
  <text x="400" y="465" font-family="monospace" font-size="11" fill="#a1a1aa" text-anchor="middle" opacity="0.4">Next.js | React | PostgreSQL | Tailwind</text>
</svg>
